{"title":"Defoe Juliet - Lemonnier Hotel de la Plage[VPSR].avi","uid":10757190,"size":204299922,"categoryP":"porn","categoryS":"other","magnet":"?xt=urn:btih:9ea0b5a5aa0079a2b8933d606bebb4eac6bb0c3c&amp;dn=Defoe+Juliet+-+Lemonnier+Hotel+de+la+Plage%5BVPSR%5D.avi&amp;tr=udp%3A%2F%2Ftracker.openbittorrent.com%3A80&amp;tr=udp%3A%2F%2Fopen.demonii.com%3A1337&amp;tr=udp%3A%2F%2Ftracker.coppersurfer.tk%3A6969&amp;tr=udp%3A%2F%2Fexodus.desync.com%3A6969","seeders":0,"leechers":1,"uploader":"vpsr","files":1,"time":1407943383,"description":"Defoe Juliet - Lemonnier Hotel de la Plage[VPSR].avi\n\n &lt;a href=&quot;\nhttp://s25.postimg.org/vo1oktqxr/defoe.jpg&quot; rel=&quot;nofollow&quot; target=&quot;_NEW&quot;&gt;\nhttp://s25.postimg.org/vo1oktqxr/defoe.jpg&lt;/a&gt;\n\n\n &lt;a href=&quot;\nhttp://s25.postimg.org/o9ccsg527/Defoe_Juliet_Lemonnier_Hotel_de_la_Plage_VPSR.jpg&quot; rel=&quot;nofollow&quot; target=&quot;_NEW&quot;&gt;\nhttp://s25.postimg.org/o9ccsg527/Defoe_Juliet_Lemonnier_Hotel_de_la_Plage_VPSR.jpg&lt;/a&gt;\n\n\nFILE INFO\n\n\n\nGeneral\nComplete name                            : Defoe Juliet - Lemonnier Hotel de la Plage[VPSR].avi\nFormat                                   : AVI\nFormat/Info                              : Audio Video Interleave\nFile size                                : 195 MiB\nDuration                                 : 2mn 42s\nOverall bit rate                         : 10.0 Mbps\nWriting library                          : VirtualDub build 30009/release\n\nVideo\nID                                       : 0\nFormat                                   : AVC\nFormat/Info                              : Advanced Video Codec\nFormat profile                           : &lt;a class=&quot;__cf_email__&quot; href=&quot;/cdn-cgi/l/email-protection&quot; data-cfemail=&quot;aae7cbc3c4eae69f849b&quot;&gt;[email&amp;#160;protected]&lt;/a&gt;&lt;script cf-hash='f9e31' type=&quot;text/javascript&quot;&gt;\n/* &lt;![CDATA[ */!function(){try{var t=&quot;currentScript&quot;in document?document.currentScript:function(){for(var t=document.getElementsByTagName(&quot;script&quot;),e=t.length;e--;)if(t[e].getAttribute(&quot;cf-hash&quot;))return t[e]}();if(t&amp;&amp;t.previousSibling){var e,r,n,i,c=t.previousSibling,a=c.getAttribute(&quot;data-cfemail&quot;);if(a){for(e=&quot;&quot;,r=parseInt(a.substr(0,2),16),n=2;a.length-n;n+=2)i=parseInt(a.substr(n,2),16)^r,e+=String.fromCharCode(i);e=document.createTextNode(e),c.parentNode.replaceChild(e,c)}}}catch(u){}}();/* ]]&gt; */&lt;/script&gt;\nFormat settings, CABAC                   : Yes\nFormat settings, ReFrames                : 6 frames\nCodec ID                                 : H264\nDuration                                 : 2mn 42s\nBit rate                                 : 10 000 Kbps\nWidth                                    : 1 920 pixels\nHeight                                   : 1 080 pixels\nDisplay aspect ratio                     : 16:9\nFrame rate                               : 25.000 fps\nOriginal frame rate                      : 12.500 fps\nColor space                              : YUV\nChroma subsampling                       : 4:2:0\nBit depth                                : 8 bits\nScan type                                : Progressive\nBits/(Pixel*Frame)                       : 0.193\nStream size                              : 192 MiB (99%)\nWriting library                          : x264 core 43 svn-394\n\nAudio\nID                                       : 1\nFormat                                   : MPEG Audio\nFormat version                           : Version 1\nFormat profile                           : Layer 3\nMode                                     : Joint stereo\nMode extension                           : MS Stereo\nCodec ID                                 : 55\nCodec ID/Hint                            : MP3\nDuration                                 : 2mn 42s\nBit rate mode                            : Constant\nBit rate                                 : 128 Kbps\nChannel(s)                               : 2 channels\nSampling rate                            : 48.0 KHz\nCompression mode                         : Lossy\nStream size                              : 2.48 MiB (1%)\nAlignment                                : Split accross interleaves\nInterleave, duration                     : 40 ms (1.00 video frame)\nInterleave, preload duration             : 500 ms\n\n","torrent":{"xt":"urn:btih:9ea0b5a5aa0079a2b8933d606bebb4eac6bb0c3c","amp;dn":"Defoe+Juliet+-+Lemonnier+Hotel+de+la+Plage%5BVPSR%5D.avi","amp;tr":["udp%3A%2F%2Ftracker.openbittorrent.com%3A80","udp%3A%2F%2Fopen.demonii.com%3A1337","udp%3A%2F%2Ftracker.coppersurfer.tk%3A6969","udp%3A%2F%2Fexodus.desync.com%3A6969"],"infoHash":"9ea0b5a5aa0079a2b8933d606bebb4eac6bb0c3c","infoHashBuffer":{"type":"Buffer","data":[158,160,181,165,170,0,121,162,184,147,61,96,107,235,180,234,198,187,12,60]},"announce":[],"urlList":[]}}